<svg width="15" height="15" viewBox="0 0 15 15" fill="none" xmlns="http://www.w3.org/2000/svg">
<path d="M13.4915 7.1787C13.4272 5.95885 12.9985 4.83559 12.3122 3.91573C12.1312 4.11305 11.9089 4.32735 11.6218 4.56869C10.9411 5.14093 10.1165 5.6573 9.13755 6.07575C9.26235 6.33795 9.37717 6.59242 9.4782 6.83235L9.4791 6.83437C9.4989 6.88065 9.51592 6.92295 9.54907 7.00635C9.55342 7.01715 9.55747 7.02727 9.56137 7.03687C10.6966 6.90915 11.8932 6.95617 13.0537 7.11337C13.2079 7.13422 13.3537 7.15612 13.4915 7.1787ZM6.4533 1.59097C6.58372 1.77466 6.72015 1.97144 6.88522 2.21533C7.34467 2.89417 7.797 3.61043 8.2203 4.3463C8.30617 4.49562 8.39025 4.64467 8.4723 4.79334C9.38947 4.43245 10.1472 3.97711 10.7578 3.46864C11.0048 3.26297 11.2037 3.06975 11.3552 2.90229C10.3126 2.02708 8.96782 1.5 7.5 1.5C7.143 1.5 6.7932 1.53118 6.4533 1.59097ZM1.68949 5.99816C2.12359 5.98839 2.6135 5.96206 3.21977 5.90638C4.42518 5.79568 5.65606 5.59687 6.86617 5.28955C6.42892 4.52791 5.95416 3.76748 5.47089 3.04033C5.23859 2.69081 5.01268 2.36244 4.84113 2.11981C3.29656 2.8846 2.12845 4.29493 1.68949 5.99816ZM2.83774 11.277C3.12833 10.852 3.51046 10.3735 4.01848 9.85305C5.10899 8.73585 6.39645 7.86585 7.88542 7.38547C7.90627 7.37932 7.9203 7.3752 7.932 7.37175C7.80825 7.09882 7.69215 6.85537 7.57522 6.62565C6.19822 7.02652 4.74772 7.27725 3.30209 7.40715C2.59739 7.47045 1.96504 7.49857 1.5 7.5033C1.50076 8.9334 2.00186 10.2465 2.83774 11.277ZM9.75337 13.0624C9.67507 12.6559 9.57517 12.2029 9.44242 11.6805C9.20167 10.7334 8.9001 9.759 8.52975 8.78085C7.0284 9.32572 5.8318 10.123 4.90732 11.0737C4.46178 11.5318 4.13433 11.9653 3.91981 12.3152C4.91919 13.0595 6.15817 13.5 7.5 13.5C8.29695 13.5 9.05767 13.3446 9.75337 13.0624ZM11.1583 12.256C12.3055 11.3724 13.1239 10.083 13.3989 8.60272C13.144 8.53987 12.8205 8.47537 12.4647 8.42595C11.6817 8.31727 10.876 8.29912 10.0807 8.40135C10.42 9.3573 10.6981 10.2999 10.9206 11.2021C11.0177 11.596 11.0968 11.9518 11.1583 12.256ZM7.5 15C3.35786 15 0 11.6421 0 7.5C0 3.35786 3.35786 0 7.5 0C11.6421 0 15 3.35786 15 7.5C15 11.6421 11.6421 15 7.5 15Z" fill="white"/>
</svg>
