<svg width="25" height="25" viewBox="0 0 25 25" fill="none" xmlns="http://www.w3.org/2000/svg">
<path d="M24.0866 0.694124C23.7651 0.374576 23.3593 0.153159 22.9166 0.0557618C22.4739 -0.041635 22.0126 -0.0109863 21.5866 0.144124L1.58665 7.84412C1.11668 8.01341 0.711246 8.32513 0.426869 8.73581C0.142493 9.14649 -0.00665217 9.63567 0.000227751 10.1352C0.00710767 10.6346 0.169669 11.1195 0.465249 11.5222C0.76083 11.9249 1.1747 12.2253 1.64915 12.3816L9.73665 15.0691L12.3991 23.1316C12.5524 23.6039 12.8491 24.0166 13.2479 24.3123C13.6467 24.608 14.1278 24.7721 14.6241 24.7816C15.1082 24.7857 15.5817 24.6402 15.98 24.365C16.3782 24.0898 16.6818 23.6984 16.8492 23.2441L24.5491 3.24412C24.7289 2.82025 24.7809 2.35308 24.6988 1.90005C24.6166 1.44701 24.4038 1.02786 24.0866 0.694124ZM22.8366 2.58162L15.1367 22.5816C15.1033 22.6858 15.0358 22.7758 14.9451 22.837C14.8544 22.8982 14.7458 22.9271 14.6367 22.9191C14.53 22.9142 14.4274 22.8768 14.3425 22.812C14.2577 22.7473 14.1946 22.6582 14.1616 22.5566L11.4991 14.5691L16.1492 9.96912C16.237 9.8813 16.3066 9.77704 16.3542 9.6623C16.4017 9.54755 16.4262 9.42457 16.4262 9.30037C16.4262 9.17618 16.4017 9.05319 16.3542 8.93845C16.3066 8.82371 16.237 8.71945 16.1492 8.63162C16.0613 8.5438 15.9571 8.47414 15.8423 8.42661C15.7276 8.37908 15.6046 8.35462 15.4804 8.35462C15.3562 8.35462 15.2332 8.37908 15.1185 8.42661C15.0037 8.47414 14.8995 8.5438 14.8117 8.63162L10.2242 13.2191L2.23665 10.5691C2.1351 10.5362 2.046 10.4731 1.98123 10.3882C1.91647 10.3034 1.87911 10.2008 1.87415 10.0941C1.86829 9.9854 1.89809 9.87774 1.959 9.78749C2.01992 9.69725 2.10863 9.62935 2.21165 9.59412L22.2116 1.89412C22.3076 1.85969 22.4113 1.85323 22.5107 1.87551C22.6102 1.89779 22.7013 1.94788 22.7733 2.01994C22.8454 2.09201 22.8955 2.18307 22.9178 2.28252C22.94 2.38197 22.9336 2.4857 22.8991 2.58162H22.8366Z" fill="white"/>
</svg>
