<svg width="16" height="15" viewBox="0 0 16 15" fill="none" xmlns="http://www.w3.org/2000/svg">
<path d="M3.33337 1.66742C3.33307 2.34601 2.92137 2.95666 2.29242 3.21142C1.66347 3.46619 0.942866 3.31419 0.470392 2.82711C-0.00208338 2.34001 -0.132067 1.61511 0.141725 0.994205C0.415525 0.373305 1.03842 -0.0196034 1.71671 0.00075496C2.6176 0.0277966 3.33378 0.766122 3.33337 1.66742ZM3.38337 4.56742H0.0500416V15.0007H3.38337V4.56742ZM8.65006 4.56742H5.33337V15.0007H8.61672V9.52573C8.61672 6.47573 12.5917 6.1924 12.5917 9.52573V15.0007H15.8834V8.3924C15.8834 3.25075 10.0001 3.44242 8.61672 5.9674L8.65006 4.56742Z" fill="#0F0F0F"/>
</svg>
