<svg width="17" height="17" viewBox="0 0 17 17" fill="none" xmlns="http://www.w3.org/2000/svg">
<path d="M8.33335 5.83333C6.95218 5.83333 5.83333 6.95258 5.83333 8.33333C5.83333 9.71441 6.9526 10.8333 8.33335 10.8333C9.71443 10.8333 10.8334 9.71408 10.8334 8.33333C10.8334 6.95225 9.7141 5.83333 8.33335 5.83333ZM8.33335 4.16667C10.6337 4.16667 12.5 6.03092 12.5 8.33333C12.5 10.6337 10.6358 12.5 8.33335 12.5C6.03294 12.5 4.16667 10.6357 4.16667 8.33333C4.16667 6.03294 6.03092 4.16667 8.33335 4.16667ZM13.75 3.95762C13.75 4.53272 13.2827 4.99931 12.7084 4.99931C12.1333 4.99931 11.6667 4.532 11.6667 3.95762C11.6667 3.38325 12.1339 2.91667 12.7084 2.91667C13.2819 2.91594 13.75 3.38325 13.75 3.95762ZM8.33335 1.66667C6.27127 1.66667 5.93517 1.67212 4.97608 1.71483C4.32264 1.74551 3.88463 1.83339 3.47765 1.99139C3.11598 2.13166 2.85509 2.29915 2.57712 2.57712C2.29808 2.85617 2.13088 3.11636 1.99118 3.47819C1.83282 3.8861 1.74496 4.32342 1.71483 4.97596C1.67171 5.896 1.66667 6.21754 1.66667 8.33333C1.66667 10.3954 1.67213 10.7315 1.71483 11.6905C1.74552 12.3437 1.83352 12.7823 1.99113 13.1883C2.13177 13.5505 2.2996 13.812 2.57623 14.0887C2.85638 14.3684 3.11734 14.5362 3.47574 14.6745C3.88768 14.8337 4.32542 14.9217 4.97595 14.9518C5.896 14.9949 6.21754 15 8.33335 15C10.3954 15 10.7315 14.9945 11.6905 14.9518C12.3423 14.9212 12.7813 14.833 13.1883 14.6755C13.5495 14.5352 13.8119 14.3668 14.0887 14.0904C14.3689 13.8098 14.5363 13.5495 14.6748 13.1902C14.8336 12.7798 14.9218 12.3415 14.9518 11.6907C14.9949 10.7707 15 10.4491 15 8.33333C15 6.27127 14.9945 5.93517 14.9518 4.97614C14.9212 4.32422 14.8329 3.88457 14.6753 3.47765C14.5353 3.11698 14.3673 2.85529 14.0895 2.57712C13.81 2.29762 13.5505 2.13077 13.1884 1.99118C12.7809 1.83295 12.3429 1.74497 11.6907 1.71484C10.7707 1.67171 10.4491 1.66667 8.33335 1.66667ZM8.33335 0C10.5972 0 10.8799 0.00833328 11.7688 0.0499999C12.6555 0.0909749 13.2604 0.23125 13.7917 0.4375C14.3409 0.649308 14.8048 0.935416 15.268 1.39861C15.7305 1.86181 16.0167 2.32708 16.2292 2.875C16.4347 3.40556 16.575 4.01111 16.6167 4.89792C16.6563 5.78681 16.6667 6.06944 16.6667 8.33333C16.6667 10.5972 16.6583 10.8798 16.6167 11.7687C16.5757 12.6556 16.4347 13.2604 16.2292 13.7917C16.0174 14.341 15.7305 14.8048 15.268 15.2681C14.8048 15.7306 14.3389 16.0167 13.7917 16.2292C13.2604 16.4347 12.6555 16.575 11.7688 16.6167C10.8799 16.6562 10.5972 16.6667 8.33335 16.6667C6.06944 16.6667 5.7868 16.6583 4.89792 16.6167C4.01111 16.5757 3.40694 16.4347 2.875 16.2292C2.32638 16.0173 1.8618 15.7306 1.39861 15.2681C0.935417 14.8048 0.65 14.3389 0.4375 13.7917C0.23125 13.2604 0.0916668 12.6556 0.0500002 11.7687C0.0104168 10.8798 0 10.5972 0 8.33333C0 6.06944 0.00833348 5.78681 0.0500002 4.89792C0.0909668 4.01042 0.23125 3.40625 0.4375 2.875C0.6493 2.32639 0.935417 1.86181 1.39861 1.39861C1.8618 0.935416 2.32708 0.65 2.875 0.4375C3.40625 0.23125 4.01042 0.0916666 4.89792 0.0499999C5.7868 0.0104166 6.06944 0 8.33335 0Z" fill="#0F0F0F"/>
</svg>
