<svg width="17" height="17" viewBox="0 0 17 17" fill="none" xmlns="http://www.w3.org/2000/svg">
<path d="M14.9906 7.97633C14.9191 6.62094 14.4427 5.37287 13.6802 4.35081C13.4791 4.57006 13.2321 4.80817 12.9131 5.07632C12.1567 5.71215 11.2406 6.28589 10.1528 6.75083C10.2915 7.04217 10.4191 7.32492 10.5313 7.5915L10.5323 7.59375C10.5543 7.64517 10.5732 7.69217 10.6101 7.78483C10.6149 7.79683 10.6194 7.80808 10.6237 7.81875C11.8851 7.67683 13.2147 7.72908 14.5041 7.90375C14.6755 7.92692 14.8375 7.95125 14.9906 7.97633ZM7.17033 1.76775C7.31525 1.97184 7.46683 2.19049 7.65025 2.46148C8.16075 3.21575 8.66333 4.01159 9.13367 4.82922C9.22908 4.99513 9.3225 5.16074 9.41366 5.32593C10.4327 4.92494 11.2747 4.41901 11.9532 3.85405C12.2276 3.62552 12.4486 3.41083 12.6169 3.22477C11.4584 2.25231 9.96425 1.66667 8.33333 1.66667C7.93667 1.66667 7.548 1.70132 7.17033 1.76775ZM1.87722 6.66462C2.35954 6.65377 2.90389 6.62451 3.57752 6.56265C4.91687 6.43965 6.28451 6.21874 7.62908 5.87728C7.14325 5.03101 6.61573 4.18609 6.07877 3.37815C5.82066 2.98979 5.56964 2.62493 5.37903 2.35535C3.66284 3.20511 2.36495 4.77215 1.87722 6.66462ZM3.15305 12.53C3.47592 12.0577 3.90051 11.5262 4.46497 10.9478C5.67666 9.7065 7.10717 8.73983 8.76158 8.20608C8.78475 8.19925 8.80033 8.19467 8.81333 8.19083C8.67583 7.88758 8.54683 7.61708 8.41691 7.36183C6.88692 7.80725 5.27525 8.08583 3.66899 8.23017C2.88599 8.3005 2.18337 8.33175 1.66667 8.337C1.66752 9.926 2.22429 11.385 3.15305 12.53ZM10.8371 14.5138C10.7501 14.0621 10.6391 13.5588 10.4916 12.9783C10.2241 11.926 9.889 10.8433 9.4775 9.7565C7.80933 10.3619 6.47978 11.2478 5.45257 12.3041C4.95753 12.8131 4.5937 13.2947 4.35535 13.6836C5.46577 14.5106 6.84242 15 8.33333 15C9.21883 15 10.0641 14.8273 10.8371 14.5138ZM12.3982 13.6178C13.6727 12.636 14.5821 11.2033 14.8877 9.55858C14.6044 9.48875 14.245 9.41708 13.8497 9.36217C12.9797 9.24142 12.0845 9.22125 11.2007 9.33483C11.5777 10.397 11.8868 11.4443 12.134 12.4467C12.2419 12.8845 12.3298 13.2798 12.3982 13.6178ZM8.33333 16.6667C3.73096 16.6667 0 12.9357 0 8.33333C0 3.73096 3.73096 0 8.33333 0C12.9357 0 16.6667 3.73096 16.6667 8.33333C16.6667 12.9357 12.9357 16.6667 8.33333 16.6667Z" fill="#0F0F0F"/>
</svg>
