<svg width="70" height="70" viewBox="0 0 70 70" fill="none" xmlns="http://www.w3.org/2000/svg">
<g clip-path="url(#clip0_1369_4314)">
<path d="M63.6888 12.6913C67.6187 17.003 69.9766 21.7066 69.9766 29.546C69.9766 43.2649 60.152 55.416 46.3976 61.6875L42.8608 56.5919C55.8292 49.5364 58.5801 40.5211 59.366 34.6416C57.4011 35.8175 54.6503 36.2095 51.8994 35.8175C44.8257 35.0336 39.3239 29.546 39.3239 22.0986C39.3239 18.5709 40.8959 15.0431 43.2538 12.2993C46.0046 9.55556 49.1485 8.37965 53.0783 8.37965C57.4011 8.37966 61.331 10.3395 63.6888 12.6913ZM24.3906 12.6913C28.3204 17.003 30.6783 21.7066 30.6783 29.546C30.6783 43.2649 20.8538 55.416 7.09938 61.6875L3.56254 56.5919C16.531 49.5364 19.2818 40.5211 20.0678 34.6416C18.1029 35.8175 15.352 36.2095 12.6011 35.8175C5.52745 35.0336 0.0256986 29.546 0.0256993 22.0986C0.0256996 18.5709 1.59763 15.0431 3.95552 12.2993C6.31342 9.55555 9.85026 8.37965 13.7801 8.37965C18.1029 8.37965 22.0327 10.3395 24.3906 12.6913Z" fill="#0F0F0F"/>
</g>
<defs>
<clipPath id="clip0_1369_4314">
<rect width="70" height="70" fill="white" transform="translate(70 70) rotate(-180)"/>
</clipPath>
</defs>
</svg>
