<svg width="80" height="80" viewBox="0 0 80 80" fill="none" xmlns="http://www.w3.org/2000/svg">
<path d="M61.25 67.8516C71.5909 67.8516 80 59.4402 80 49.1016C80 39.6625 72.9916 31.8302 63.9005 30.5392C64.6283 25.252 66.647 20.2213 69.8011 15.8588C70.4145 15.0074 70.3916 13.8538 69.737 13.0299C69.0948 12.2191 67.9789 11.9117 66.9995 12.3249C52.1177 18.5366 42.5 32.9745 42.5 49.1016C42.5 59.4402 50.9091 67.8516 61.25 67.8516ZM18.75 67.8516C29.0909 67.8516 37.5 59.4402 37.5 49.1016C37.5 39.6625 30.4916 31.8302 21.4005 30.5392C22.1283 25.252 24.147 20.2213 27.3011 15.8588C27.9145 15.0074 27.8916 13.8538 27.237 13.0299C26.5948 12.2191 25.4789 11.9117 24.4995 12.3249C9.61765 18.5366 0 32.9745 0 49.1016C0 59.4402 8.40907 67.8516 18.75 67.8516Z" fill="#0F0F0F"/>
</svg>
