<svg width="21" height="16" viewBox="0 0 21 16" fill="none" xmlns="http://www.w3.org/2000/svg">
<path d="M6.94144 0.35617L0.34161 6.956C0.122894 7.17479 2.67029e-05 7.47148 2.67029e-05 7.78084C2.67029e-05 8.09019 0.122894 8.38689 0.34161 8.60567L6.94144 15.2055C7.16148 15.418 7.45618 15.5356 7.76208 15.533C8.06797 15.5303 8.36059 15.4076 8.5769 15.1913C8.79321 14.975 8.9159 14.6824 8.91856 14.3765C8.92122 14.0706 8.80363 13.7759 8.59111 13.5558L3.98278 8.9475H19.4329C19.7424 8.9475 20.0391 8.82459 20.2579 8.60579C20.4767 8.387 20.5996 8.09026 20.5996 7.78084C20.5996 7.47142 20.4767 7.17467 20.2579 6.95588C20.0391 6.73709 19.7424 6.61417 19.4329 6.61417H3.98278L8.59111 2.00584C8.70254 1.89822 8.79142 1.76948 8.85256 1.62714C8.91371 1.4848 8.94589 1.33171 8.94724 1.1768C8.94858 1.0219 8.91906 0.868269 8.8604 0.72489C8.80174 0.581511 8.71511 0.451251 8.60557 0.341709C8.49603 0.232168 8.36577 0.145539 8.22239 0.0868779C8.07901 0.0282169 7.92538 -0.00130207 7.77048 4.40491e-05C7.61557 0.00139017 7.46248 0.0335742 7.32014 0.094718C7.1778 0.155862 7.04906 0.244741 6.94144 0.35617Z" fill="#0F0F0F" fill-opacity="0.5"/>
</svg>
