<svg width="21" height="16" viewBox="0 0 21 16" fill="none" xmlns="http://www.w3.org/2000/svg">
<path d="M13.6582 0.35617L20.258 6.956C20.4767 7.17479 20.5996 7.47148 20.5996 7.78084C20.5996 8.09019 20.4767 8.38689 20.258 8.60567L13.6582 15.2055C13.4381 15.418 13.1434 15.5356 12.8375 15.533C12.5316 15.5303 12.239 15.4076 12.0227 15.1913C11.8064 14.975 11.6837 14.6824 11.681 14.3765C11.6784 14.0706 11.796 13.7759 12.0085 13.5558L16.6168 8.9475H1.16667C0.857247 8.9475 0.560501 8.82459 0.341709 8.60579C0.122916 8.387 0 8.09026 0 7.78084C0 7.47142 0.122916 7.17467 0.341709 6.95588C0.560501 6.73709 0.857247 6.61417 1.16667 6.61417H16.6168L12.0085 2.00584C11.8971 1.89822 11.8082 1.76948 11.747 1.62714C11.6859 1.4848 11.6537 1.33171 11.6524 1.1768C11.651 1.0219 11.6805 0.868269 11.7392 0.72489C11.7979 0.581511 11.8845 0.451251 11.994 0.341709C12.1036 0.232168 12.2338 0.145539 12.3772 0.0868779C12.5206 0.0282169 12.6742 -0.00130207 12.8291 4.40491e-05C12.984 0.00139017 13.1371 0.0335742 13.2795 0.094718C13.4218 0.155862 13.5505 0.244741 13.6582 0.35617Z" fill="#0F0F0F" fill-opacity="0.5"/>
</svg>
