<svg width="40" height="40" viewBox="0 0 40 40" fill="none" xmlns="http://www.w3.org/2000/svg">
<path d="M18.7734 31C19.0312 31.3984 19.4844 31.6641 20 31.6641C20.5156 31.6641 20.9687 31.3984 21.2344 31L29.8437 17.7031C31 15.9141 31.6719 13.9453 31.6719 11.6641C31.6641 5.07031 26.4844 0 20 0C13.5156 0 8.33594 5.07031 8.33594 11.6641C8.33594 13.9453 9.00781 15.9141 10.1641 17.7031L18.7734 31ZM20 5C23.6797 5 26.6641 7.98438 26.6641 11.6641C26.6641 15.3438 23.6797 18.3281 20 18.3281C16.3203 18.3281 13.3359 15.3438 13.3359 11.6641C13.3359 7.98438 16.3203 5 20 5ZM28.5469 25.2734L20 36.6641L11.4531 25.2734C8.53125 26.8047 6.66406 29.0937 6.66406 31.6641C6.66406 36.2656 12.6328 40 20 40C27.3672 40 33.3359 36.2656 33.3359 31.6641C33.3359 29.0937 31.4687 26.8047 28.5469 25.2734Z" fill="#0F0F0F"/>
</svg>
