<svg width="22" height="22" viewBox="0 0 22 22" fill="none" xmlns="http://www.w3.org/2000/svg">
<path d="M18.672 8.38972L19.599 7.46272C20.3364 6.72529 20.7507 5.72511 20.7507 4.68222C20.7507 3.63933 20.3364 2.63916 19.599 1.90172C18.8616 1.16429 17.8614 0.75 16.8185 0.75C15.7756 0.75 14.7754 1.16429 14.038 1.90172L13.111 2.82872L4.589 11.3487C4.012 11.9267 3.723 12.2157 3.475 12.5337C3.18239 12.9092 2.93126 13.3152 2.726 13.7447C2.553 14.1087 2.424 14.4967 2.166 15.2707L1.072 18.5517M18.672 8.38972C18.672 8.38972 16.703 8.27372 14.965 6.53572C13.227 4.79872 13.112 2.82872 13.112 2.82872M18.672 8.38972L10.151 16.9097C9.574 17.4867 9.285 17.7757 8.967 18.0237C8.59152 18.3163 8.18549 18.5675 7.756 18.7727C7.392 18.9457 7.005 19.0747 6.23 19.3327L2.949 20.4267M2.949 20.4267L2.147 20.6947C1.96005 20.7574 1.75932 20.7667 1.56738 20.7216C1.37544 20.6764 1.19989 20.5787 1.06047 20.4393C0.921042 20.2998 0.82327 20.1243 0.778139 19.9323C0.733009 19.7404 0.742309 19.5397 0.804996 19.3527L1.073 18.5507L2.949 20.4267Z" stroke="#545454" stroke-width="1.5"/>
</svg>
