<svg width="24" height="18" viewBox="0 0 24 18" fill="none" xmlns="http://www.w3.org/2000/svg">
<path d="M7.93306 0.407051L0.390388 7.94972C0.140427 8.19975 7.62939e-06 8.53883 7.62939e-06 8.89238C7.62939e-06 9.24594 0.140427 9.58501 0.390388 9.83505L7.93306 17.3777C8.18452 17.6206 8.52133 17.755 8.87092 17.752C9.22052 17.7489 9.55494 17.6087 9.80215 17.3615C10.0494 17.1143 10.1896 16.7798 10.1926 16.4303C10.1957 16.0807 10.0613 15.7439 9.81839 15.4924L4.55172 10.2257H22.2091C22.5627 10.2257 22.9018 10.0852 23.1519 9.83519C23.4019 9.58514 23.5424 9.24601 23.5424 8.89238C23.5424 8.53876 23.4019 8.19962 23.1519 7.94958C22.9018 7.69953 22.5627 7.55905 22.2091 7.55905H4.55172L9.81839 2.29238C9.94573 2.16939 10.0473 2.02226 10.1172 1.85959C10.1871 1.69692 10.2239 1.52196 10.2254 1.34492C10.2269 1.16788 10.1932 0.992307 10.1262 0.828446C10.0591 0.664584 9.9601 0.515715 9.83492 0.390525C9.70972 0.265334 9.56086 0.16633 9.39699 0.0992891C9.23313 0.0322479 9.05756 -0.00148808 8.88052 5.03418e-05C8.70348 0.00158876 8.52852 0.0383705 8.36585 0.108249C8.20318 0.178128 8.05605 0.279704 7.93306 0.407051Z" fill="#0F0F0F" fill-opacity="0.5"/>
</svg>
