<svg width="24" height="18" viewBox="0 0 24 18" fill="none" xmlns="http://www.w3.org/2000/svg">
<path d="M15.6093 0.407051L23.152 7.94972C23.402 8.19975 23.5424 8.53883 23.5424 8.89238C23.5424 9.24594 23.402 9.58501 23.152 9.83505L15.6093 17.3777C15.3579 17.6206 15.0211 17.755 14.6715 17.752C14.3219 17.7489 13.9875 17.6087 13.7402 17.3615C13.493 17.1143 13.3528 16.7798 13.3498 16.4303C13.3467 16.0807 13.4811 15.7439 13.724 15.4924L18.9907 10.2257H1.33333C0.979711 10.2257 0.640573 10.0852 0.390524 9.83519C0.140476 9.58514 0 9.24601 0 8.89238C0 8.53876 0.140476 8.19962 0.390524 7.94958C0.640573 7.69953 0.979711 7.55905 1.33333 7.55905H18.9907L13.724 2.29238C13.5967 2.16939 13.4951 2.02226 13.4252 1.85959C13.3553 1.69692 13.3185 1.52196 13.317 1.34492C13.3155 1.16788 13.3492 0.992307 13.4162 0.828446C13.4833 0.664584 13.5823 0.515715 13.7075 0.390525C13.8327 0.265334 13.9815 0.16633 14.1454 0.0992891C14.3093 0.0322479 14.4848 -0.00148808 14.6619 5.03418e-05C14.8389 0.00158876 15.0139 0.0383705 15.1765 0.108249C15.3392 0.178128 15.4863 0.279704 15.6093 0.407051Z" fill="#0F0F0F" fill-opacity="0.5"/>
</svg>
