<svg width="21" height="21" viewBox="0 0 21 21" fill="none" xmlns="http://www.w3.org/2000/svg">
<path d="M19.7569 0.368056C19.2662 -0.122685 18.4792 -0.122685 17.9884 0.368056L10.0625 8.29398L2.13657 0.368056C1.64583 -0.122685 0.858796 -0.122685 0.368056 0.368056C-0.122685 0.858796 -0.122685 1.64583 0.368056 2.13657L8.29398 10.0625L0.368056 17.9884C-0.122685 18.4792 -0.122685 19.2662 0.368056 19.7569C0.608796 19.9977 0.93287 20.1273 1.24769 20.1273C1.5625 20.1273 1.88657 20.0069 2.12731 19.7569L10.0532 11.831L17.9792 19.7569C18.2199 19.9977 18.544 20.1273 18.8588 20.1273C19.1829 20.1273 19.4977 20.0069 19.7384 19.7569C20.2292 19.2662 20.2292 18.4792 19.7384 17.9884L11.831 10.0625L19.7569 2.13657C20.2477 1.64583 20.2477 0.858796 19.7569 0.368056Z" fill="#545454"/>
</svg>
